<?xml version="1.0" encoding="utf-8"?>
<!-- Generator: Adobe Illustrator 26.0.0, SVG Export Plug-In . SVG Version: 6.00 Build 0)  -->
<svg version="1.1" id="Capa_1" xmlns="http://www.w3.org/2000/svg" xmlns:xlink="http://www.w3.org/1999/xlink" x="0px" y="0px"
	 viewBox="0 0 200 100" style="enable-background:new 0 0 200 100;" xml:space="preserve">
<style type="text/css">
	.st0{fill:#FFFFFF;}
	.st1{fill:#E84480;}
	.st2{fill:#652576;}
	.st3{fill:#F7DEBF;}
	.st4{fill:#5B2671;}
	.st5{fill:#F0E591;}
	.st6{fill:#ED75A9;}
</style>
<g>
	<g>
		<g>
			<g>
				<path class="st0" d="M114.07,42.35c0,0.35,0,0.71,0,1.05c0,0.35-0.02,0.7-0.05,1.05c-0.07,0.75-0.23,1.46-0.49,2.13
					c-0.26,0.67-0.61,1.26-1.05,1.76c-0.44,0.5-0.97,0.9-1.6,1.2s-1.35,0.44-2.17,0.44c-0.32,0-0.65-0.03-0.99-0.08
					c-0.34-0.05-0.69-0.14-1.02-0.24c-0.34-0.11-0.66-0.24-0.97-0.4c-0.31-0.16-0.58-0.34-0.82-0.55l0.56-3.73
					c0.35,0.34,0.75,0.62,1.18,0.83s0.9,0.32,1.41,0.32c0.33,0,0.61-0.05,0.84-0.14c0.23-0.1,0.42-0.23,0.57-0.4
					c0.15-0.17,0.27-0.36,0.35-0.59c0.09-0.22,0.15-0.46,0.19-0.72c0.04-0.25,0.06-0.52,0.07-0.79c0.01-0.27,0.01-0.54,0.01-0.8
					c0-0.95-0.05-1.9-0.14-2.85c-0.1-0.95-0.18-1.89-0.25-2.84l4.11-0.27C113.98,38.6,114.07,40.47,114.07,42.35z"/>
				<path class="st0" d="M123.97,37.11l-0.5,3.8c-0.17-0.05-0.35-0.08-0.52-0.1c-0.17-0.02-0.35-0.03-0.52-0.03
					c-0.44,0-0.87,0.06-1.27,0.18c-0.4,0.12-0.76,0.3-1.06,0.54c-0.31,0.24-0.55,0.54-0.74,0.9c-0.18,0.36-0.27,0.78-0.27,1.27
					c0,0.31,0.05,0.58,0.15,0.81c0.1,0.23,0.24,0.42,0.42,0.57c0.18,0.15,0.39,0.26,0.64,0.33c0.25,0.07,0.51,0.11,0.81,0.11
					c0.22,0,0.45-0.02,0.69-0.07c0.24-0.05,0.48-0.11,0.71-0.19c0.23-0.08,0.46-0.17,0.68-0.27c0.22-0.1,0.43-0.21,0.61-0.31
					l-0.36,4.23c-0.23,0.12-0.49,0.23-0.76,0.32c-0.27,0.09-0.55,0.17-0.84,0.24c-0.29,0.07-0.57,0.12-0.86,0.16
					c-0.29,0.04-0.56,0.05-0.83,0.05c-0.76,0-1.47-0.14-2.13-0.42c-0.66-0.28-1.23-0.67-1.72-1.16s-0.87-1.07-1.15-1.74
					c-0.28-0.67-0.42-1.39-0.42-2.16c0-1.03,0.15-1.99,0.44-2.9c0.29-0.91,0.72-1.7,1.29-2.39c0.57-0.68,1.27-1.22,2.12-1.62
					s1.81-0.59,2.91-0.59c0.41,0,0.84,0.03,1.27,0.1C123.2,36.81,123.6,36.93,123.97,37.11z"/>
				<path class="st0" d="M137.63,36.89l-0.09,3.82l-2.68,0.11l-0.68,8.53l-3.79,0.2l0.02-8.53l-2.68,0.14l0.11-4.25L137.63,36.89z"
					/>
				<path class="st0" d="M148.84,43.41c0,0.55-0.06,1.07-0.19,1.58c-0.13,0.51-0.31,0.98-0.54,1.43s-0.52,0.85-0.86,1.22
					c-0.34,0.37-0.72,0.69-1.14,0.95c-0.42,0.26-0.88,0.47-1.38,0.62c-0.5,0.15-1.02,0.22-1.58,0.22c-0.54,0-1.05-0.07-1.54-0.21
					c-0.49-0.14-0.95-0.33-1.37-0.58s-0.81-0.55-1.15-0.9c-0.34-0.35-0.64-0.74-0.88-1.17c-0.24-0.43-0.43-0.89-0.57-1.38
					c-0.13-0.49-0.2-1-0.2-1.54c0-0.52,0.06-1.03,0.19-1.53c0.13-0.5,0.31-0.97,0.54-1.42c0.24-0.44,0.52-0.85,0.86-1.22
					c0.34-0.37,0.71-0.69,1.13-0.96c0.42-0.27,0.87-0.48,1.35-0.63c0.49-0.15,1-0.22,1.54-0.22c0.87,0,1.66,0.14,2.38,0.41
					c0.72,0.27,1.33,0.66,1.83,1.16c0.51,0.5,0.9,1.11,1.18,1.82C148.7,41.74,148.84,42.53,148.84,43.41z M144.85,43.64
					c0-0.26-0.04-0.51-0.11-0.75c-0.07-0.24-0.18-0.46-0.33-0.65c-0.14-0.19-0.32-0.34-0.53-0.46c-0.21-0.12-0.46-0.18-0.73-0.18
					c-0.28,0-0.53,0.05-0.75,0.15c-0.22,0.1-0.41,0.24-0.57,0.42c-0.16,0.18-0.28,0.38-0.36,0.62c-0.08,0.24-0.13,0.49-0.13,0.75
					c0,0.25,0.04,0.5,0.11,0.76c0.07,0.25,0.18,0.48,0.32,0.68c0.14,0.2,0.32,0.37,0.53,0.49c0.21,0.13,0.46,0.19,0.74,0.19
					c0.28,0,0.53-0.06,0.76-0.17c0.22-0.11,0.41-0.26,0.57-0.45c0.16-0.19,0.28-0.41,0.36-0.65
					C144.81,44.16,144.85,43.9,144.85,43.64z"/>
				<path class="st0" d="M160.65,43.41c0,0.55-0.06,1.07-0.19,1.58c-0.13,0.51-0.31,0.98-0.54,1.43c-0.24,0.44-0.52,0.85-0.86,1.22
					c-0.34,0.37-0.72,0.69-1.14,0.95c-0.42,0.26-0.88,0.47-1.38,0.62c-0.5,0.15-1.02,0.22-1.58,0.22c-0.54,0-1.05-0.07-1.54-0.21
					c-0.49-0.14-0.95-0.33-1.37-0.58c-0.43-0.25-0.81-0.55-1.15-0.9c-0.34-0.35-0.64-0.74-0.88-1.17c-0.24-0.43-0.43-0.89-0.57-1.38
					c-0.13-0.49-0.2-1-0.2-1.54c0-0.52,0.06-1.03,0.19-1.53c0.13-0.5,0.31-0.97,0.54-1.42c0.24-0.44,0.52-0.85,0.86-1.22
					c0.34-0.37,0.71-0.69,1.13-0.96c0.42-0.27,0.87-0.48,1.35-0.63c0.49-0.15,1-0.22,1.54-0.22c0.87,0,1.66,0.14,2.38,0.41
					c0.72,0.27,1.33,0.66,1.83,1.16c0.51,0.5,0.9,1.11,1.18,1.82C160.51,41.74,160.65,42.53,160.65,43.41z M156.66,43.64
					c0-0.26-0.04-0.51-0.11-0.75s-0.18-0.46-0.33-0.65c-0.14-0.19-0.32-0.34-0.53-0.46c-0.21-0.12-0.46-0.18-0.73-0.18
					c-0.28,0-0.53,0.05-0.75,0.15c-0.22,0.1-0.41,0.24-0.57,0.42c-0.16,0.18-0.28,0.38-0.36,0.62c-0.08,0.24-0.13,0.49-0.13,0.75
					c0,0.25,0.04,0.5,0.11,0.76c0.07,0.25,0.18,0.48,0.32,0.68c0.14,0.2,0.32,0.37,0.53,0.49c0.21,0.13,0.46,0.19,0.74,0.19
					c0.28,0,0.53-0.06,0.76-0.17c0.22-0.11,0.41-0.26,0.57-0.45c0.16-0.19,0.28-0.41,0.36-0.65
					C156.62,44.16,156.66,43.9,156.66,43.64z"/>
				<path class="st0" d="M173.74,36.86l-0.65,12.2l-4.71,0.43l-2.52-6.53l-0.4,6.66h-4.04l0.32-12.76l4.49-0.22l3.11,6.48L169.5,37
					L173.74,36.86z"/>
				<path class="st0" d="M184,44.97c0,0.82-0.14,1.54-0.43,2.16c-0.28,0.61-0.67,1.13-1.17,1.53c-0.49,0.41-1.07,0.71-1.73,0.92
					c-0.66,0.2-1.37,0.31-2.13,0.31c-0.29,0-0.62-0.04-0.97-0.12c-0.35-0.08-0.71-0.18-1.06-0.29c-0.36-0.12-0.7-0.24-1.04-0.38
					s-0.63-0.26-0.88-0.38l0.4-3.71c0.51,0.31,1.07,0.54,1.69,0.7c0.62,0.16,1.23,0.24,1.83,0.24c0.11,0,0.25,0,0.41-0.01
					c0.16-0.01,0.32-0.04,0.46-0.08c0.15-0.05,0.27-0.11,0.37-0.2c0.1-0.09,0.15-0.22,0.15-0.39c0-0.11-0.04-0.21-0.11-0.29
					c-0.07-0.08-0.17-0.15-0.28-0.2c-0.11-0.05-0.24-0.09-0.39-0.12c-0.14-0.03-0.28-0.05-0.42-0.06c-0.14-0.01-0.27-0.02-0.39-0.02
					c-0.12,0-0.22,0-0.29,0c-0.52,0-0.98-0.09-1.41-0.27c-0.42-0.18-0.78-0.43-1.09-0.75c-0.3-0.32-0.54-0.7-0.71-1.14
					c-0.17-0.44-0.25-0.92-0.25-1.44c0-0.71,0.14-1.34,0.43-1.9c0.28-0.56,0.67-1.04,1.14-1.43s1.02-0.69,1.64-0.9
					c0.62-0.21,1.25-0.31,1.91-0.31c0.29,0,0.6,0.01,0.91,0.03c0.31,0.02,0.62,0.06,0.93,0.11c0.31,0.05,0.61,0.12,0.9,0.21
					c0.29,0.08,0.57,0.19,0.84,0.31l-0.34,3.65c-0.41-0.14-0.83-0.25-1.28-0.35c-0.45-0.09-0.88-0.14-1.31-0.14
					c-0.08,0-0.18,0-0.3,0c-0.12,0-0.25,0.01-0.39,0.03c-0.13,0.02-0.27,0.04-0.41,0.07c-0.14,0.03-0.26,0.07-0.37,0.12
					c-0.11,0.05-0.19,0.12-0.26,0.2c-0.07,0.08-0.1,0.18-0.09,0.3c0.01,0.13,0.06,0.24,0.15,0.32c0.09,0.08,0.21,0.14,0.36,0.19
					s0.31,0.08,0.49,0.09c0.18,0.02,0.35,0.03,0.53,0.03c0.17,0,0.34,0,0.49,0c0.15,0,0.27,0,0.37,0.01
					c0.48,0.03,0.91,0.13,1.29,0.31c0.38,0.17,0.71,0.41,0.97,0.69s0.47,0.63,0.61,1.03C183.93,44.05,184,44.49,184,44.97z"/>
			</g>
		</g>
		<g>
			<g>
				<path class="st0" d="M106.63,62.77h-1.35v-7.27h1.35V62.77z"/>
				<path class="st0" d="M111.08,55.3v7.47h-1.24V55.3H111.08z"/>
				<path class="st0" d="M118.56,57.62v5.16h-0.76c-0.16,0-0.27-0.08-0.31-0.23l-0.09-0.41c-0.21,0.21-0.44,0.39-0.7,0.52
					c-0.25,0.13-0.55,0.2-0.9,0.2c-0.28,0-0.53-0.05-0.75-0.14s-0.4-0.23-0.54-0.4c-0.15-0.17-0.26-0.38-0.33-0.62
					c-0.08-0.24-0.11-0.5-0.11-0.79v-3.28h1.24v3.28c0,0.31,0.07,0.56,0.22,0.73c0.15,0.17,0.36,0.26,0.65,0.26
					c0.21,0,0.41-0.05,0.6-0.14s0.36-0.23,0.53-0.39v-3.73H118.56z"/>
				<path class="st0" d="M124.72,58.62c-0.03,0.05-0.07,0.09-0.11,0.11c-0.04,0.02-0.08,0.03-0.14,0.03c-0.06,0-0.12-0.02-0.19-0.05
					c-0.07-0.03-0.15-0.07-0.24-0.11c-0.09-0.04-0.19-0.08-0.31-0.11c-0.12-0.03-0.25-0.05-0.41-0.05c-0.24,0-0.44,0.05-0.57,0.16
					c-0.14,0.1-0.21,0.24-0.21,0.41c0,0.11,0.04,0.2,0.11,0.28c0.07,0.08,0.17,0.14,0.29,0.2c0.12,0.06,0.25,0.11,0.4,0.15
					c0.15,0.05,0.3,0.09,0.46,0.15c0.16,0.05,0.31,0.11,0.46,0.18c0.15,0.07,0.29,0.16,0.4,0.26c0.12,0.11,0.21,0.23,0.29,0.38
					c0.07,0.15,0.11,0.33,0.11,0.53c0,0.25-0.04,0.48-0.13,0.69c-0.09,0.21-0.22,0.39-0.39,0.54c-0.17,0.15-0.39,0.27-0.64,0.36
					c-0.26,0.09-0.55,0.13-0.89,0.13c-0.18,0-0.35-0.02-0.52-0.05c-0.17-0.03-0.33-0.08-0.49-0.13c-0.16-0.06-0.3-0.12-0.43-0.2
					c-0.13-0.08-0.25-0.16-0.35-0.25l0.29-0.47c0.04-0.06,0.08-0.1,0.13-0.13c0.05-0.03,0.11-0.05,0.19-0.05
					c0.08,0,0.15,0.02,0.22,0.07c0.07,0.04,0.15,0.09,0.24,0.14c0.09,0.05,0.2,0.1,0.32,0.14c0.12,0.04,0.28,0.07,0.46,0.07
					c0.15,0,0.27-0.02,0.38-0.05c0.11-0.04,0.19-0.08,0.26-0.14c0.07-0.06,0.12-0.12,0.15-0.2c0.03-0.08,0.05-0.15,0.05-0.23
					c0-0.12-0.04-0.22-0.11-0.3c-0.07-0.08-0.17-0.14-0.29-0.2c-0.12-0.06-0.25-0.11-0.41-0.15c-0.15-0.05-0.31-0.09-0.47-0.15
					c-0.16-0.05-0.31-0.12-0.47-0.19c-0.15-0.07-0.29-0.16-0.41-0.27c-0.12-0.11-0.21-0.25-0.29-0.41
					c-0.07-0.16-0.11-0.36-0.11-0.58c0-0.21,0.04-0.41,0.13-0.6c0.08-0.19,0.21-0.36,0.37-0.5c0.16-0.14,0.36-0.26,0.61-0.34
					c0.24-0.09,0.52-0.13,0.84-0.13c0.35,0,0.68,0.06,0.97,0.18c0.29,0.12,0.53,0.27,0.73,0.46L124.72,58.62z"/>
				<path class="st0" d="M129.57,62.85c-0.45,0-0.79-0.13-1.03-0.38c-0.24-0.25-0.36-0.6-0.36-1.05v-2.88h-0.53
					c-0.07,0-0.12-0.02-0.17-0.07c-0.05-0.04-0.07-0.11-0.07-0.2v-0.49l0.83-0.14l0.26-1.41c0.02-0.07,0.05-0.12,0.1-0.16
					c0.05-0.04,0.11-0.06,0.18-0.06h0.64v1.62h1.37v0.88h-1.37v2.79c0,0.16,0.04,0.29,0.12,0.38c0.08,0.09,0.19,0.14,0.32,0.14
					c0.08,0,0.14-0.01,0.19-0.03c0.05-0.02,0.1-0.04,0.14-0.06c0.04-0.02,0.07-0.04,0.1-0.06c0.03-0.02,0.06-0.03,0.09-0.03
					c0.04,0,0.07,0.01,0.09,0.03c0.02,0.02,0.05,0.05,0.08,0.08l0.37,0.6c-0.18,0.15-0.39,0.26-0.62,0.34
					C130.07,62.81,129.82,62.85,129.57,62.85z"/>
				<path class="st0" d="M134.56,58.51c0.16-0.31,0.35-0.55,0.57-0.73c0.22-0.18,0.48-0.26,0.78-0.26c0.24,0,0.43,0.05,0.57,0.16
					l-0.08,0.93c-0.02,0.06-0.04,0.1-0.07,0.13c-0.03,0.03-0.07,0.04-0.13,0.04c-0.05,0-0.12-0.01-0.22-0.02
					c-0.1-0.02-0.2-0.03-0.29-0.03c-0.14,0-0.26,0.02-0.37,0.06c-0.11,0.04-0.2,0.1-0.29,0.17c-0.09,0.08-0.16,0.17-0.23,0.27
					c-0.07,0.11-0.13,0.23-0.18,0.37v3.18h-1.24v-5.16h0.73c0.13,0,0.22,0.02,0.27,0.07c0.05,0.05,0.08,0.13,0.1,0.24L134.56,58.51z
					"/>
				<path class="st0" d="M138.87,58.33c0.59-0.54,1.3-0.81,2.14-0.81c0.3,0,0.57,0.05,0.81,0.15c0.24,0.1,0.44,0.24,0.6,0.41
					c0.16,0.18,0.29,0.39,0.37,0.63c0.09,0.24,0.13,0.51,0.13,0.8v3.26h-0.56c-0.12,0-0.21-0.02-0.27-0.05
					c-0.06-0.04-0.11-0.11-0.15-0.21l-0.11-0.37c-0.13,0.12-0.26,0.22-0.38,0.31c-0.12,0.09-0.25,0.16-0.39,0.22
					s-0.28,0.11-0.43,0.14c-0.15,0.03-0.32,0.05-0.5,0.05c-0.22,0-0.42-0.03-0.6-0.09c-0.18-0.06-0.34-0.15-0.48-0.26
					c-0.13-0.12-0.24-0.26-0.31-0.44c-0.07-0.17-0.11-0.38-0.11-0.61c0-0.13,0.02-0.26,0.07-0.39c0.04-0.13,0.11-0.25,0.21-0.37
					c0.1-0.12,0.23-0.23,0.38-0.33c0.16-0.1,0.35-0.19,0.58-0.27c0.23-0.08,0.5-0.14,0.8-0.19c0.3-0.05,0.65-0.08,1.04-0.09v-0.3
					c0-0.35-0.07-0.6-0.22-0.77c-0.15-0.17-0.36-0.25-0.64-0.25c-0.2,0-0.37,0.02-0.5,0.07c-0.13,0.05-0.25,0.1-0.35,0.16
					c-0.1,0.06-0.19,0.11-0.27,0.16c-0.08,0.05-0.17,0.07-0.27,0.07c-0.09,0-0.16-0.02-0.22-0.07c-0.06-0.05-0.11-0.1-0.15-0.16
					L138.87,58.33z M141.71,60.57c-0.36,0.02-0.66,0.05-0.9,0.09c-0.24,0.05-0.44,0.1-0.59,0.17c-0.15,0.07-0.25,0.15-0.32,0.25
					c-0.06,0.09-0.1,0.2-0.1,0.31c0,0.22,0.06,0.37,0.19,0.47c0.13,0.09,0.3,0.14,0.5,0.14c0.25,0,0.47-0.05,0.66-0.14
					c0.19-0.09,0.37-0.23,0.54-0.42V60.57z"/>
				<path class="st0" d="M149.57,58.71c-0.04,0.05-0.07,0.08-0.11,0.11c-0.03,0.03-0.09,0.04-0.15,0.04c-0.06,0-0.13-0.02-0.19-0.06
					c-0.06-0.04-0.13-0.08-0.22-0.13c-0.08-0.05-0.18-0.09-0.3-0.13c-0.12-0.04-0.26-0.06-0.43-0.06c-0.22,0-0.41,0.04-0.57,0.12
					c-0.16,0.08-0.3,0.19-0.41,0.34c-0.11,0.15-0.19,0.33-0.24,0.54c-0.05,0.21-0.08,0.45-0.08,0.71c0,0.27,0.03,0.52,0.09,0.73
					c0.06,0.21,0.14,0.39,0.25,0.54c0.11,0.15,0.24,0.26,0.4,0.33c0.16,0.08,0.33,0.11,0.53,0.11s0.36-0.02,0.48-0.07
					c0.12-0.05,0.22-0.1,0.31-0.16c0.08-0.06,0.16-0.11,0.22-0.16c0.06-0.05,0.13-0.07,0.21-0.07c0.1,0,0.18,0.04,0.23,0.12
					l0.36,0.45c-0.14,0.16-0.29,0.3-0.45,0.4c-0.16,0.11-0.33,0.2-0.5,0.26c-0.17,0.07-0.35,0.11-0.53,0.14
					c-0.18,0.03-0.36,0.04-0.54,0.04c-0.32,0-0.62-0.06-0.9-0.18c-0.28-0.12-0.53-0.29-0.74-0.52c-0.21-0.23-0.38-0.51-0.5-0.84
					c-0.12-0.33-0.18-0.71-0.18-1.13c0-0.38,0.05-0.73,0.16-1.05c0.11-0.32,0.27-0.6,0.48-0.84c0.21-0.24,0.47-0.42,0.78-0.56
					c0.31-0.13,0.67-0.2,1.07-0.2c0.38,0,0.72,0.06,1.01,0.19c0.29,0.12,0.55,0.3,0.78,0.53L149.57,58.71z"/>
				<path class="st0" d="M153.91,56.11c0,0.11-0.02,0.21-0.07,0.3c-0.04,0.09-0.1,0.18-0.17,0.25c-0.07,0.07-0.16,0.13-0.25,0.17
					c-0.1,0.04-0.2,0.06-0.31,0.06c-0.11,0-0.21-0.02-0.3-0.06c-0.1-0.04-0.18-0.1-0.25-0.17c-0.07-0.07-0.13-0.15-0.17-0.25
					c-0.04-0.09-0.06-0.19-0.06-0.3c0-0.11,0.02-0.21,0.06-0.31c0.04-0.1,0.1-0.18,0.17-0.25c0.07-0.07,0.15-0.13,0.25-0.17
					c0.1-0.04,0.2-0.06,0.3-0.06c0.11,0,0.21,0.02,0.31,0.06c0.1,0.04,0.18,0.1,0.25,0.17c0.07,0.07,0.13,0.15,0.17,0.25
					C153.89,55.9,153.91,56,153.91,56.11z M153.74,57.62v5.16h-1.24v-5.16H153.74z"/>
				<path class="st0" d="M159.04,57.54c0.38,0,0.73,0.06,1.04,0.19c0.31,0.12,0.58,0.3,0.8,0.53c0.22,0.23,0.39,0.51,0.51,0.83
					c0.12,0.33,0.18,0.7,0.18,1.1c0,0.41-0.06,0.78-0.18,1.11c-0.12,0.33-0.29,0.61-0.51,0.84c-0.22,0.23-0.49,0.41-0.8,0.53
					c-0.31,0.12-0.66,0.19-1.04,0.19c-0.38,0-0.73-0.06-1.05-0.19c-0.31-0.12-0.58-0.3-0.81-0.53c-0.22-0.23-0.39-0.51-0.52-0.84
					c-0.12-0.33-0.18-0.7-0.18-1.11c0-0.41,0.06-0.77,0.18-1.1c0.12-0.33,0.29-0.61,0.52-0.83c0.22-0.23,0.49-0.4,0.81-0.53
					C158.3,57.6,158.65,57.54,159.04,57.54z M159.04,61.89c0.43,0,0.75-0.14,0.95-0.43c0.21-0.29,0.31-0.71,0.31-1.27
					c0-0.56-0.1-0.98-0.31-1.27c-0.21-0.29-0.52-0.44-0.95-0.44c-0.44,0-0.76,0.15-0.97,0.44c-0.21,0.29-0.31,0.72-0.31,1.27
					c0,0.55,0.1,0.97,0.31,1.26C158.28,61.75,158.6,61.89,159.04,61.89z"/>
				<path class="st0" d="M165.48,58.25c0.1-0.1,0.21-0.2,0.33-0.29c0.12-0.09,0.24-0.16,0.37-0.23c0.13-0.06,0.27-0.11,0.41-0.15
					c0.15-0.03,0.31-0.05,0.48-0.05c0.28,0,0.53,0.05,0.75,0.14c0.22,0.1,0.4,0.23,0.54,0.4c0.15,0.17,0.26,0.38,0.33,0.62
					c0.08,0.24,0.11,0.5,0.11,0.79v3.28h-1.24v-3.28c0-0.32-0.07-0.56-0.22-0.73c-0.14-0.17-0.36-0.26-0.66-0.26
					c-0.21,0-0.41,0.05-0.6,0.15c-0.19,0.1-0.36,0.23-0.53,0.4v3.73h-1.24v-5.16h0.76c0.16,0,0.27,0.08,0.32,0.23L165.48,58.25z"/>
				<path class="st0" d="M172.73,60.35c0.02,0.26,0.07,0.49,0.14,0.69c0.07,0.19,0.17,0.35,0.29,0.48c0.12,0.13,0.26,0.22,0.43,0.28
					c0.17,0.06,0.35,0.09,0.55,0.09c0.2,0,0.37-0.02,0.52-0.07s0.27-0.1,0.38-0.16s0.2-0.11,0.29-0.16
					c0.08-0.05,0.16-0.07,0.24-0.07c0.1,0,0.18,0.04,0.23,0.12l0.36,0.45c-0.14,0.16-0.29,0.3-0.46,0.4
					c-0.17,0.11-0.35,0.2-0.53,0.26c-0.19,0.07-0.37,0.11-0.57,0.14c-0.19,0.03-0.38,0.04-0.56,0.04c-0.36,0-0.69-0.06-1-0.18
					s-0.58-0.29-0.8-0.53c-0.23-0.23-0.41-0.52-0.54-0.86c-0.13-0.34-0.2-0.74-0.2-1.19c0-0.35,0.06-0.68,0.17-0.99
					c0.11-0.31,0.28-0.58,0.49-0.81c0.21-0.23,0.47-0.41,0.78-0.55c0.31-0.13,0.65-0.2,1.04-0.2c0.32,0,0.62,0.05,0.9,0.16
					c0.27,0.1,0.51,0.26,0.71,0.45c0.2,0.2,0.35,0.44,0.46,0.73c0.11,0.29,0.17,0.62,0.17,0.99c0,0.19-0.02,0.31-0.06,0.38
					c-0.04,0.07-0.12,0.1-0.23,0.1H172.73z M175.09,59.6c0-0.16-0.02-0.31-0.07-0.45c-0.04-0.14-0.11-0.27-0.2-0.37
					c-0.09-0.11-0.21-0.19-0.34-0.25c-0.14-0.06-0.3-0.09-0.48-0.09c-0.36,0-0.64,0.1-0.85,0.31c-0.21,0.2-0.34,0.49-0.39,0.87
					H175.09z"/>
				<path class="st0" d="M182.09,58.62c-0.03,0.05-0.07,0.09-0.11,0.11c-0.04,0.02-0.08,0.03-0.14,0.03c-0.06,0-0.12-0.02-0.19-0.05
					c-0.07-0.03-0.15-0.07-0.24-0.11c-0.09-0.04-0.19-0.08-0.31-0.11c-0.12-0.03-0.25-0.05-0.41-0.05c-0.24,0-0.44,0.05-0.57,0.16
					s-0.21,0.24-0.21,0.41c0,0.11,0.04,0.2,0.11,0.28c0.07,0.08,0.17,0.14,0.29,0.2c0.12,0.06,0.25,0.11,0.4,0.15
					c0.15,0.05,0.3,0.09,0.46,0.15c0.16,0.05,0.31,0.11,0.46,0.18c0.15,0.07,0.29,0.16,0.4,0.26s0.21,0.23,0.29,0.38
					c0.07,0.15,0.11,0.33,0.11,0.53c0,0.25-0.04,0.48-0.13,0.69c-0.09,0.21-0.22,0.39-0.39,0.54c-0.17,0.15-0.39,0.27-0.64,0.36
					c-0.26,0.09-0.55,0.13-0.89,0.13c-0.18,0-0.35-0.02-0.52-0.05c-0.17-0.03-0.33-0.08-0.49-0.13c-0.16-0.06-0.3-0.12-0.43-0.2
					c-0.13-0.08-0.25-0.16-0.35-0.25l0.29-0.47c0.04-0.06,0.08-0.1,0.13-0.13c0.05-0.03,0.11-0.05,0.19-0.05s0.15,0.02,0.22,0.07
					c0.07,0.04,0.15,0.09,0.24,0.14c0.09,0.05,0.2,0.1,0.32,0.14c0.12,0.04,0.28,0.07,0.46,0.07c0.15,0,0.27-0.02,0.38-0.05
					c0.11-0.04,0.19-0.08,0.26-0.14c0.07-0.06,0.12-0.12,0.15-0.2c0.03-0.08,0.05-0.15,0.05-0.23c0-0.12-0.04-0.22-0.11-0.3
					c-0.07-0.08-0.17-0.14-0.29-0.2c-0.12-0.06-0.25-0.11-0.41-0.15c-0.15-0.05-0.31-0.09-0.47-0.15s-0.31-0.12-0.47-0.19
					c-0.15-0.07-0.29-0.16-0.41-0.27c-0.12-0.11-0.21-0.25-0.29-0.41c-0.07-0.16-0.11-0.36-0.11-0.58c0-0.21,0.04-0.41,0.13-0.6
					c0.08-0.19,0.21-0.36,0.37-0.5c0.16-0.14,0.36-0.26,0.61-0.34c0.24-0.09,0.52-0.13,0.84-0.13c0.35,0,0.68,0.06,0.97,0.18
					c0.29,0.12,0.53,0.27,0.73,0.46L182.09,58.62z"/>
			</g>
		</g>
	</g>
	<g>
		<g>
			<ellipse class="st1" cx="55.94" cy="49.89" rx="38.89" ry="38.95"/>
			<path class="st2" d="M55.94,89.89c-22.02,0-39.94-17.94-39.94-40s17.92-40,39.94-40s39.94,17.94,39.94,40
				S77.96,89.89,55.94,89.89z M55.94,11.98c-20.87,0-37.85,17-37.85,37.91s16.98,37.91,37.85,37.91s37.85-17,37.85-37.91
				S76.8,11.98,55.94,11.98z"/>
		</g>
		<g>
			<ellipse class="st3" cx="55.94" cy="49.89" rx="30.11" ry="23.24"/>
			<path class="st2" d="M55.94,74.17c-17.18,0-31.15-10.89-31.15-24.28s13.98-24.28,31.15-24.28S87.09,36.5,87.09,49.89
				S73.12,74.17,55.94,74.17z M55.94,27.7c-16.03,0-29.06,9.95-29.06,22.19s13.04,22.19,29.06,22.19S85,62.12,85,49.89
				S71.96,27.7,55.94,27.7z"/>
		</g>
		<g>
			<ellipse class="st3" cx="90.44" cy="46.29" rx="4.39" ry="3.94"/>
			<path class="st2" d="M90.44,51.28c-3,0-5.44-2.24-5.44-4.99c0-2.75,2.44-4.99,5.44-4.99c3,0,5.44,2.24,5.44,4.99
				C95.87,49.04,93.43,51.28,90.44,51.28z M90.44,43.4c-1.84,0-3.35,1.3-3.35,2.9c0,1.6,1.5,2.9,3.35,2.9s3.35-1.3,3.35-2.9
				C93.78,44.69,92.28,43.4,90.44,43.4z"/>
		</g>
		<g>
			<ellipse class="st3" cx="21.44" cy="46.29" rx="4.39" ry="3.94"/>
			<path class="st2" d="M21.44,51.28c-3,0-5.44-2.24-5.44-4.99c0-2.75,2.44-4.99,5.44-4.99s5.44,2.24,5.44,4.99
				C26.87,49.04,24.43,51.28,21.44,51.28z M21.44,43.4c-1.84,0-3.35,1.3-3.35,2.9c0,1.6,1.5,2.9,3.35,2.9s3.35-1.3,3.35-2.9
				C24.78,44.69,23.28,43.4,21.44,43.4z"/>
		</g>
		<path class="st4" d="M40.53,37.37l2.19,1.22c-0.31,1.56-1.2,2.62-2.19,2.62c-1.27,0-2.31-1.74-2.31-3.85s1.04-3.85,2.31-3.85
			c1.08,0,2.02,1.26,2.26,3.02L40.53,37.37z"/>
		<path class="st4" d="M71.32,37.37l2.19,1.22c-0.31,1.56-1.2,2.62-2.19,2.62c-1.27,0-2.31-1.74-2.31-3.85s1.04-3.85,2.31-3.85
			c1.08,0,2.02,1.26,2.26,3.02L71.32,37.37z"/>
		<g>
			<path class="st5" d="M87.67,27.99l-6.91,8.76c0.71,0.8,1.36,1.64,1.94,2.5l0.16-0.03l8.96-7.08l1.93-6.04L87.67,27.99z"/>
			<path class="st4" d="M82.32,40.19l-0.32-0.47c-0.56-0.84-1.19-1.65-1.87-2.41l-0.47-0.52l7.5-9.52l7.86-2.45l-2.5,7.82
				l-9.31,7.36L82.32,40.19z M81.85,36.72c0.37,0.44,0.73,0.9,1.07,1.38l8.17-6.46l1.36-4.26l-4.29,1.34L81.85,36.72z"/>
		</g>
		<path class="st2" d="M55.91,51.07c-8.73,0-13.46-2.97-13.49-5.77c0-0.46,0.37-0.84,0.83-0.84c0.47-0.01,0.84,0.37,0.84,0.83
			c0.02,1.94,5.07,4.11,11.81,4.11c7.32,0,11.81-2.4,11.81-4.12c0-0.46,0.37-0.84,0.84-0.84s0.84,0.38,0.84,0.84
			C69.39,48.09,64.66,51.07,55.91,51.07z"/>
		<g>
			<path class="st6" d="M85.97,48.36c-4.69-2-10.07-1.29-13.62,2.26c-4.79,4.8-4.42,12.96,0.84,18.22c0.02,0.02,0.04,0.04,0.06,0.05
				c7.74-4.2,12.8-11.15,12.8-19.01C86.05,49.37,86.02,48.86,85.97,48.36z"/>
			<path class="st2" d="M73.06,70.19l-0.62-0.6c-5.65-5.66-6.03-14.5-0.84-19.7c3.74-3.75,9.54-4.72,14.77-2.49l0.58,0.25l0.05,0.63
				c0.05,0.61,0.08,1.13,0.08,1.62c0,7.94-4.99,15.39-13.35,19.93L73.06,70.19z M80.69,48.3c-2.87,0-5.59,1.05-7.6,3.06
				c-4.22,4.23-4.02,11.38,0.35,16.22C80.69,63.39,85,56.83,85,49.89c0-0.25-0.01-0.51-0.02-0.8C83.56,48.56,82.11,48.3,80.69,48.3z
				"/>
		</g>
		<g>
			<path class="st6" d="M25.9,48.36c-0.04,0.51-0.07,1.02-0.07,1.53c0,7.86,5.06,14.8,12.8,19.01c0.02-0.02,0.04-0.04,0.06-0.05
				c5.25-5.26,5.63-13.42,0.84-18.22C35.97,47.07,30.59,46.36,25.9,48.36z"/>
			<path class="st2" d="M38.82,70.15l-0.69-0.33c-8.36-4.54-13.35-11.99-13.35-19.93c0-0.49,0.02-1,0.08-1.62l0.05-0.63l0.58-0.25
				c5.23-2.23,11.03-1.26,14.77,2.49c5.19,5.2,4.82,14.04-0.84,19.7l-0.06,0.05L38.82,70.15z M26.9,49.09
				c-0.02,0.29-0.02,0.55-0.02,0.8c0,6.94,4.31,13.51,11.56,17.7c4.37-4.85,4.57-11.99,0.35-16.22
				C35.79,48.36,31.18,47.5,26.9,49.09z"/>
		</g>
		<path class="st4" d="M49.29,18.32c-1.04-0.21-1.82,0.13-1.97,0.88c-0.35,1.73,1.51,1.73,1.51,1.73s2.81,0,4.59,1.45
			c2.5,2.04,2.6,4.52,2.6,4.52C56.36,20.55,49.56,18.37,49.29,18.32z"/>
		<path class="st4" d="M53.48,12.77c-1.08-0.88-2.19-0.97-2.83-0.19c-1.47,1.79,0.69,2.94,0.69,2.94s3.27,1.74,4.44,4.52
			c1.64,3.92,0.24,6.86,0.24,6.86C60.33,19.73,53.76,13,53.48,12.77z"/>
		<path class="st4" d="M61.85,17.67c-0.15-1.05-0.73-1.67-1.49-1.56c-1.74,0.25-1.12,2.01-1.12,2.01s0.94,2.65,0.17,4.82
			c-1.08,3.04-3.38,3.97-3.38,3.97C62.13,25.09,61.89,17.94,61.85,17.67z"/>
	</g>
</g>
</svg>
